<?xml version="1.0" standalone="no"?>
<!DOCTYPE svg PUBLIC "-//W3C//DTD SVG 20010904//EN"
 "http://www.w3.org/TR/2001/REC-SVG-20010904/DTD/svg10.dtd">
<svg version="1.0" xmlns="http://www.w3.org/2000/svg"
 width="900.000000pt" height="580.000000pt" viewBox="0 0 900.000000 580.000000"
 preserveAspectRatio="xMidYMid meet">
<metadata>
Created by potrace 1.15, written by Peter Selinger 2001-2017
</metadata>
<g transform="translate(0.000000,580.000000) scale(0.100000,-0.100000)"
fill="#000000" stroke="none">
<path d="M6316 4285 c-26 -21 -40 -61 -141 -405 -62 -210 -116 -377 -120 -371
-4 7 -13 10 -21 7 -7 -3 -16 -1 -18 3 -3 5 -27 14 -53 21 -27 6 -68 18 -93 25
-25 7 -109 30 -188 51 -138 36 -143 36 -162 19 -11 -10 -20 -24 -20 -31 0 -7
-4 -14 -8 -16 -11 -4 -82 -105 -82 -115 0 -7 384 -113 815 -225 83 -21 158
-41 168 -44 16 -5 17 3 15 107 l-3 112 -137 36 c-112 30 -135 39 -128 51 4 8
51 161 105 340 53 179 100 328 104 332 3 4 42 -51 86 -123 111 -181 106 -175
132 -152 l21 18 -114 184 c-62 102 -117 188 -121 192 -5 4 -21 -3 -37 -16z"/>
<path d="M3402 4122 l-133 -3 62 -69 62 -70 148 0 c82 0 149 3 149 8 -1 17
-117 133 -135 135 -11 1 -80 1 -153 -1z"/>
<path d="M3970 3918 l0 -148 39 0 c46 0 47 -1 57 -112 l6 -78 -151 0 c-83 0
-151 -3 -151 -6 0 -3 26 -34 57 -70 l57 -64 155 0 156 -1 100 -110 c55 -61
127 -140 159 -175 47 -52 56 -68 46 -77 -10 -9 -11 -9 -6 1 7 11 -6 16 -41 15
-7 -1 -13 3 -13 8 0 13 -146 11 -192 -3 l-40 -12 -43 50 -43 49 5 -75 5 -75
-49 -48 c-42 -41 -61 -51 -124 -67 -41 -11 -75 -20 -75 -20 -1 0 -14 66 -30
146 l-28 145 -80 45 c-43 24 -80 43 -81 42 -1 -2 10 -66 25 -143 15 -77 27
-141 26 -142 -1 -2 -12 6 -23 16 -12 12 -25 43 -32 82 -6 35 -19 99 -28 142
l-16 78 -68 40 c-105 61 -100 67 -68 -83 35 -165 35 -163 7 -144 -19 13 -28
41 -54 163 l-30 148 -77 44 c-43 24 -80 42 -82 40 -2 -2 9 -66 24 -141 16 -76
25 -138 22 -138 -28 0 -43 35 -70 168 -15 78 -31 145 -34 148 -11 11 -152 92
-155 89 -2 -2 8 -62 23 -135 14 -72 25 -135 23 -139 -2 -5 -49 18 -106 51 -56
34 -104 59 -106 57 -10 -14 -86 -152 -84 -154 2 -1 181 -104 398 -229 217
-125 399 -231 403 -235 5 -5 2 -11 -6 -14 -8 -3 -69 26 -136 64 -66 38 -124
69 -128 69 -9 0 -93 -142 -93 -156 0 -5 38 -32 85 -58 74 -44 96 -66 63 -66
-5 0 -88 45 -183 100 -96 55 -177 100 -182 100 -9 0 -133 -214 -133 -228 0 -5
73 -51 163 -103 89 -51 178 -102 197 -113 l35 -21 -23 29 c-22 28 -22 30 -5
47 28 27 367 289 374 289 6 0 88 -100 119 -144 25 -36 142 -186 145 -186 7 0
-55 213 -66 226 -6 8 -17 14 -24 14 -7 0 -25 16 -39 35 -32 41 -30 42 19 14
l37 -22 -4 34 -3 33 230 63 c127 34 235 61 240 59 6 -2 25 -59 43 -127 18 -68
66 -248 107 -399 67 -248 77 -295 60 -278 -3 3 -42 140 -86 304 -113 424 -110
413 -133 429 -30 22 -55 18 -66 -9 -12 -33 -30 -42 -30 -17 0 26 2 26 -90 1
-110 -30 -110 -30 -110 -42 0 -6 8 -7 18 -3 38 15 158 43 165 38 5 -3 7 -14 4
-24 -3 -11 -1 -17 3 -14 5 3 12 -1 17 -8 15 -25 57 -47 88 -46 28 1 27 2 -8 9
-21 4 -48 16 -59 28 l-21 20 24 31 c56 71 68 49 164 -308 47 -173 84 -320 81
-327 -3 -7 -1 -14 4 -16 5 -2 12 -15 15 -30 7 -28 6 -28 -39 -28 -52 0 -57 10
-20 39 15 12 22 21 16 21 -6 0 -22 -14 -36 -30 l-25 -31 -118 3 -118 3 -70
262 c-39 144 -74 265 -78 269 -11 11 -10 5 29 -138 19 -73 51 -191 70 -261 19
-71 34 -130 34 -132 0 -3 -20 -4 -44 -3 -41 0 -44 2 -54 37 -26 87 -124 458
-126 476 -1 12 -5 25 -8 30 -20 35 -18 66 6 90 27 27 41 31 51 15 3 -5 15 -10
25 -10 10 0 21 -8 23 -17 3 -11 5 -7 6 10 1 17 -3 26 -9 22 -6 -4 -22 0 -35 9
-36 24 -95 -6 -95 -48 0 -12 35 -151 79 -311 53 -198 74 -292 67 -297 -6 -4
-40 -8 -75 -8 -55 0 -62 2 -51 15 7 8 16 13 20 10 5 -3 11 -1 14 4 14 23 -18
21 -49 -3 -21 -16 -46 -26 -67 -26 l-33 1 25 21 c14 11 38 31 55 44 36 28 27
42 -12 18 l-28 -18 24 27 c40 44 20 39 -47 -13 -40 -31 -57 -50 -48 -53 8 -3
24 1 37 10 15 9 12 5 -6 -11 -58 -50 -71 -42 -200 124 -65 83 -121 150 -126
150 -5 0 40 -62 99 -137 60 -76 111 -144 116 -150 5 -10 -6 -13 -46 -13 l-54
0 -101 129 -100 129 28 27 c16 15 29 31 29 36 0 5 -14 -5 -30 -23 l-30 -33
-20 24 c-22 26 -26 71 -8 89 7 7 29 12 50 12 34 0 38 -3 39 -27 1 -24 2 -23 8
7 4 24 2 36 -6 38 -26 7 -11 32 50 80 53 43 64 49 76 37 12 -12 12 -16 0 -32
-13 -16 -12 -17 3 -5 10 8 26 11 40 7 22 -7 22 -6 4 7 -17 13 -17 19 -7 51 17
51 57 52 95 3 26 -35 24 -45 -14 -59 -12 -4 -12 -6 2 -6 9 -1 20 4 23 9 3 6
10 10 15 10 5 0 59 -63 119 -141 61 -78 111 -137 111 -132 0 8 -233 309 -272
350 -13 14 -33 23 -50 23 -29 0 -31 -3 -43 -55 -6 -28 -7 -29 -21 -11 -13 18
-17 16 -89 -39 -83 -63 -90 -71 -75 -80 21 -13 9 -24 -19 -19 -21 5 -34 1 -50
-15 -27 -27 -27 -61 1 -97 14 -18 17 -26 8 -22 -8 3 -190 107 -405 231 -257
149 -393 223 -400 217 -27 -22 -65 -120 -65 -166 0 -88 30 -116 267 -250 68
-38 123 -75 123 -82 0 -7 5 -10 12 -6 6 4 8 3 4 -4 -3 -6 8 -53 25 -104 l32
-93 -42 -68 c-23 -37 -39 -73 -35 -79 4 -6 3 -8 -3 -5 -6 4 -24 -16 -42 -44
-35 -57 -37 -63 -15 -55 10 4 13 2 8 -6 -5 -8 -2 -9 10 -5 9 4 15 3 12 -2 -7
-11 22 -23 36 -14 6 3 8 1 4 -5 -6 -9 8 -18 39 -24 6 -1 16 -8 23 -15 8 -7 18
-11 23 -8 5 4 9 3 9 -2 0 -4 34 -26 76 -48 49 -25 80 -48 85 -63 5 -13 9 -91
9 -173 l0 -149 1395 0 1395 0 2 171 3 171 107 57 c58 30 104 60 101 65 -4 5
-1 6 6 2 9 -6 84 29 110 50 2 2 -31 58 -73 124 -59 94 -76 129 -74 153 1 18 6
34 10 37 4 3 9 17 10 30 2 14 6 27 10 30 6 5 88 250 88 263 0 4 -24 -2 -52
-12 -29 -10 -127 -42 -217 -71 l-165 -53 37 -29 37 -30 0 -88 c0 -60 4 -91 13
-97 11 -7 -178 -22 -195 -15 -5 2 -8 138 -8 302 l0 300 -22 5 c-69 16 -223 45
-239 45 -14 0 -21 -9 -25 -30 -7 -32 -13 -34 -62 -24 -27 5 -31 11 -34 43 -3
32 -6 36 -35 39 -29 3 -31 5 -27 35 14 97 94 929 90 935 -2 4 43 6 100 4 l104
-3 0 148 0 148 -755 0 -755 0 0 -147z m201 -147 c13 -1 18 -21 26 -113 5 -62
9 -114 9 -115 -1 -1 -21 17 -45 39 -40 38 -44 46 -52 111 -9 74 -4 88 30 82 9
-2 23 -4 32 -4z m279 -11 c7 -11 20 -281 20 -402 l0 -59 -64 57 -64 57 -7 111
c-4 61 -10 143 -14 181 l-6 70 64 -2 c35 -1 67 -7 71 -13z m342 -332 c-2 -188
-6 -357 -10 -376 l-7 -35 -73 69 -73 69 -6 310 -6 310 89 -3 89 -3 -3 -341z
m344 320 c-3 -13 -20 -225 -37 -473 -18 -247 -33 -451 -34 -453 -1 -1 -35 3
-74 9 -70 12 -72 13 -67 38 3 14 8 116 11 226 4 110 8 217 10 237 2 20 7 127
11 237 l7 201 89 0 c86 0 88 -1 84 -22z m-351 -1022 c50 -8 140 -22 200 -31
441 -65 400 -56 420 -95 12 -23 15 -73 15 -242 0 -117 -4 -219 -9 -227 -13
-20 -789 -20 -802 1 -11 16 -11 13 -10 318 1 321 -9 307 186 276z m-1537 -510
c31 -28 42 -46 42 -67 l0 -29 -97 1 c-54 1 -90 3 -80 6 18 5 19 12 17 117 -1
67 0 71 32 100 l33 31 5 -60 c5 -56 8 -64 48 -99z m99 -378 c15 -54 18 -60 24
-38 5 18 7 12 8 -25 1 -60 -31 -207 -45 -212 -6 -2 -20 36 -31 84 l-21 88 -1
-61 c-1 -39 4 -67 14 -80 21 -28 18 -34 -18 -34 -43 0 -49 7 -32 34 9 14 15
58 16 127 3 86 0 111 -14 132 -9 15 -17 28 -17 31 0 3 21 7 48 9 26 2 48 4 49
5 1 1 10 -26 20 -60z m138 -114 l0 -164 -57 0 c-54 0 -72 10 -48 25 6 4 10 67
10 155 l0 149 33 3 c64 6 62 13 62 -168z m160 1 c0 -110 -4 -175 -10 -175 -18
1 -52 34 -69 67 -20 40 -21 161 -2 207 15 35 53 76 70 76 7 0 11 -58 11 -175z
m75 147 c73 -73 57 -276 -25 -314 -33 -15 -41 -5 -26 30 13 32 11 250 -3 290
-12 32 18 29 54 -6z m465 -148 c0 -102 -4 -164 -10 -165 -23 -2 -100 3 -104 7
-3 2 1 10 7 16 16 16 17 269 0 286 -16 16 21 29 70 24 l37 -4 0 -164z m815
155 c0 -4 -4 -11 -10 -14 -15 -9 -13 -268 2 -283 17 -17 9 -21 -50 -23 -58 -3
-71 3 -53 25 14 16 12 259 -2 288 -7 14 -3 17 25 20 44 4 88 -2 88 -13z m309
5 c11 -4 12 -7 3 -16 -16 -16 -17 -274 -1 -284 19 -11 -5 -23 -53 -25 -55 -3
-67 4 -50 31 8 13 12 68 12 163 l0 143 38 -4 c20 -2 43 -5 51 -8z m171 -160
l0 -164 -50 0 c-37 0 -50 4 -50 14 0 8 5 18 10 21 6 4 10 58 10 130 0 72 -4
126 -10 130 -25 15 -8 34 33 37 23 2 45 2 50 0 4 -2 7 -77 7 -168z m-1556 141
c-3 -13 0 -57 7 -97 l13 -72 14 73 c9 52 10 77 3 84 -21 21 -11 37 22 37 44 0
50 -8 28 -36 -10 -12 -24 -57 -31 -98 -7 -42 -16 -73 -20 -71 -4 3 -7 -12 -7
-33 1 -20 -2 -50 -6 -65 -6 -23 -12 -28 -35 -25 -26 3 -28 7 -57 145 -16 78
-33 145 -37 149 -5 4 -8 13 -8 21 0 9 17 13 60 13 59 0 60 -1 54 -25z m427 13
c1 -23 1 -171 0 -245 l-1 -73 -50 0 c-47 0 -63 11 -40 25 13 8 13 272 0 280
-20 13 2 25 46 25 28 0 44 -4 45 -12z m419 -137 c0 -89 4 -152 10 -156 25 -16
5 -25 -55 -25 -60 0 -80 9 -55 25 6 4 10 67 10 156 l0 149 45 0 45 0 0 -149z
m400 97 c12 -47 14 -50 26 -33 13 17 14 16 14 -16 0 -34 -37 -219 -46 -228 -8
-9 -16 9 -34 76 l-18 68 -1 -52 c-1 -28 4 -55 9 -58 24 -15 9 -35 -26 -35 -31
0 -35 3 -28 18 5 9 10 59 12 111 2 66 6 90 13 80 16 -23 -1 52 -17 78 -23 36
-17 43 35 43 l49 0 12 -52z"/>
<path d="M5050 2550 c0 -7 -6 -10 -14 -7 -8 3 -32 -8 -55 -25 -32 -23 -41 -36
-41 -59 0 -27 2 -29 20 -19 19 10 20 8 20 -70 0 -47 -4 -80 -10 -80 -5 0 -10
-18 -10 -39 l0 -39 78 -4 c59 -3 80 0 90 11 8 10 12 11 12 3 0 -7 5 -12 10
-12 6 0 10 15 10 34 0 19 -4 38 -10 41 -6 4 -10 58 -10 130 0 68 -3 126 -8
129 -4 2 -24 7 -45 11 -26 5 -37 4 -37 -5z"/>
<path d="M3442 3931 c2 -5 29 -36 60 -70 l57 -62 152 3 151 3 -62 68 -62 67
-150 0 c-82 0 -148 -4 -146 -9z"/>
<path d="M3615 3750 c-2 -4 23 -36 55 -72 l59 -66 143 5 c79 3 145 6 147 8 2
2 -23 34 -55 70 l-59 66 -143 -2 c-79 -2 -145 -6 -147 -9z"/>
<path d="M2718 3223 c-23 -43 -44 -81 -46 -84 -3 -7 480 -289 494 -289 10 0
94 141 94 156 0 7 -450 275 -491 292 -4 2 -27 -32 -51 -75z"/>
<path d="M2621 3053 c-18 -30 -31 -56 -29 -58 1 -1 59 -35 128 -75 69 -40 139
-81 156 -91 l30 -18 32 56 c18 31 31 57 30 58 -2 1 -73 43 -159 92 l-156 90
-32 -54z"/>
<path d="M2547 2924 c-15 -25 -27 -48 -27 -52 0 -7 283 -174 306 -180 6 -1 22
19 37 46 l27 50 -123 70 c-67 38 -138 79 -157 90 l-36 21 -27 -45z"/>
</g>
</svg>
