<svg id="svg" version="1.1" width="400" height="265.3576437587658" viewBox="0 0 400 265.3576437587658" xmlns="http://www.w3.org/2000/svg" xmlns:xlink="http://www.w3.org/1999/xlink" ><g id="svgg"><path id="path0" d="M49.283 50.314 C 36.373 52.336,26.307 61.029,22.768 73.214 L 22.176 75.249 22.097 130.856 C 22.041 169.439,22.104 187.032,22.301 188.321 C 24.306 201.426,36.192 213.118,49.554 215.132 C 53.478 215.724,157.911 215.722,161.558 215.131 C 175.787 212.823,186.914 201.520,189.125 187.127 C 189.697 183.403,189.700 80.859,189.128 76.837 C 187.292 63.926,177.512 53.776,163.902 50.656 L 161.248 50.048 106.437 49.998 C 60.904 49.956,51.229 50.009,49.283 50.314 M337.412 135.952 C 337.168 136.196,337.094 143.861,337.094 168.836 C 337.094 206.101,336.850 202.654,339.482 202.654 C 342.010 202.654,341.870 203.519,341.881 187.827 C 341.891 172.258,341.975 171.363,343.749 167.782 C 349.064 157.055,365.351 156.332,370.499 166.595 C 372.189 169.964,372.215 170.236,372.378 186.653 C 372.549 203.825,372.371 202.654,374.817 202.654 C 377.364 202.654,377.215 203.743,377.106 185.952 C 376.991 167.374,376.782 166.073,373.123 161.244 C 366.353 152.308,349.781 152.813,343.444 162.149 C 342.944 162.886,342.415 163.452,342.269 163.408 C 342.100 163.356,341.956 158.740,341.871 150.608 C 341.731 137.127,341.732 137.146,340.447 136.104 C 339.792 135.573,337.886 135.478,337.412 135.952 M205.935 144.900 C 205.323 145.395,205.307 145.520,205.225 150.402 C 205.127 156.271,205.462 155.797,201.413 155.802 C 197.557 155.807,196.338 156.832,197.518 159.075 C 197.999 159.989,198.226 160.045,201.494 160.049 C 203.678 160.052,204.663 160.153,204.863 160.394 C 205.054 160.624,205.176 166.027,205.240 177.050 C 205.355 196.775,205.463 197.424,209.193 200.778 C 214.219 205.297,225.822 203.620,226.813 198.231 C 227.269 195.750,225.791 194.798,224.147 196.514 C 219.010 201.875,211.515 199.617,210.231 192.320 C 209.732 189.485,209.861 160.411,210.373 160.214 C 210.604 160.126,213.930 160.053,217.764 160.053 C 225.709 160.053,225.734 160.046,225.734 157.880 C 225.734 155.858,225.531 155.806,217.643 155.806 C 208.974 155.806,209.954 156.465,209.954 150.638 C 209.954 146.137,209.914 145.742,209.403 145.092 C 208.709 144.209,206.912 144.109,205.935 144.900 M251.677 155.012 C 227.562 158.395,224.539 195.010,247.777 202.243 C 258.409 205.552,271.708 201.459,274.864 193.905 C 276.175 190.767,273.175 188.484,271.396 191.266 C 267.225 197.786,259.709 200.492,250.962 198.624 C 243.454 197.020,237.455 189.974,236.843 182.040 L 236.684 179.970 256.071 179.899 C 278.471 179.816,276.577 180.066,276.574 177.198 C 276.560 162.787,265.638 153.053,251.677 155.012 M303.893 155.019 C 277.787 158.071,276.390 197.359,302.190 202.933 C 306.503 203.865,312.409 203.416,316.604 201.837 C 323.299 199.317,328.936 191.935,326.231 189.230 C 325.001 187.999,324.073 188.154,323.318 189.715 C 320.663 195.197,316.280 198.200,309.640 199.084 C 294.073 201.155,283.399 184.145,290.815 169.083 C 297.083 156.354,316.534 155.515,322.861 167.702 C 323.987 169.870,324.274 170.081,325.440 169.598 C 328.148 168.476,327.183 164.676,323.183 160.711 C 318.521 156.088,311.774 154.097,303.893 155.019 M162.309 155.667 C 171.024 158.078,176.661 165.758,177.225 175.989 C 177.453 180.128,179.627 179.685,158.773 179.752 C 149.039 179.784,140.559 179.784,139.929 179.752 C 137.563 179.634,137.377 180.269,138.465 184.738 C 142.280 200.392,163.975 204.842,172.591 191.737 C 174.698 188.532,177.404 190.934,175.685 194.485 C 171.747 202.619,156.392 205.870,145.853 200.800 C 128.177 192.297,129.469 163.671,147.852 156.466 C 151.724 154.949,158.382 154.581,162.309 155.667 M70.971 156.095 C 72.272 157.118,72.141 156.662,77.373 178.368 C 82.556 199.871,82.222 198.870,83.168 195.753 C 83.390 195.023,85.558 188.573,87.986 181.420 C 90.415 174.267,92.706 167.497,93.078 166.376 C 94.014 163.555,94.535 163.119,96.961 163.126 C 100.377 163.137,99.477 161.351,106.173 181.420 C 111.265 196.679,111.641 197.698,112.030 197.291 C 112.140 197.175,113.085 193.497,114.130 189.117 C 115.175 184.738,116.507 179.184,117.089 176.775 C 117.671 174.366,118.506 170.902,118.944 169.078 C 121.863 156.909,121.811 157.075,123.056 156.095 C 123.937 155.403,124.643 155.396,125.747 156.069 C 126.925 156.787,127.311 154.735,122.626 172.661 C 121.787 175.873,120.235 181.845,119.177 185.932 C 115.271 201.027,115.194 201.294,114.632 201.893 C 113.514 203.083,109.799 202.923,108.976 201.649 C 108.650 201.145,106.000 193.502,99.018 172.926 C 98.031 170.018,97.357 168.414,97.121 168.414 C 96.752 168.414,95.902 170.719,89.880 188.056 C 84.444 203.704,85.093 202.365,82.794 202.680 C 79.093 203.187,79.475 203.981,74.860 186.198 C 72.813 178.315,70.271 168.577,69.210 164.558 C 67.084 156.503,67.090 156.566,68.296 155.971 C 69.444 155.405,70.135 155.437,70.971 156.095 M151.975 159.402 C 145.645 160.992,140.333 166.438,138.636 173.074 C 137.888 176.000,136.087 175.727,155.600 175.649 L 172.661 175.581 172.624 173.855 C 172.414 164.117,162.059 156.868,151.975 159.402 M260.518 159.909 C 266.464 161.897,270.194 166.552,271.251 173.306 C 271.663 175.935,273.224 175.713,254.280 175.713 C 235.009 175.713,236.696 176.000,237.571 172.877 C 240.488 162.462,250.771 156.651,260.518 159.909 " stroke="none" fill="#a31c5c" fill-rule="evenodd"></path><path id="path1" d="M0.000 132.714 L 0.000 265.428 200.000 265.428 L 400.000 265.428 400.000 132.714 L 400.000 0.000 200.000 0.000 L 0.000 0.000 0.000 132.714 M163.902 50.656 C 177.512 53.776,187.292 63.926,189.128 76.837 C 189.700 80.859,189.697 183.403,189.125 187.127 C 186.914 201.520,175.787 212.823,161.558 215.131 C 157.911 215.722,53.478 215.724,49.554 215.132 C 36.192 213.118,24.306 201.426,22.301 188.321 C 22.104 187.032,22.041 169.439,22.097 130.856 L 22.176 75.249 22.768 73.214 C 25.895 62.450,34.352 54.163,45.301 51.134 C 49.688 49.920,48.422 49.944,106.437 49.998 L 161.248 50.048 163.902 50.656 M340.447 136.104 C 341.732 137.146,341.731 137.127,341.871 150.608 C 341.956 158.740,342.100 163.356,342.269 163.408 C 342.415 163.452,342.944 162.886,343.444 162.149 C 349.781 152.813,366.353 152.308,373.123 161.244 C 376.782 166.073,376.991 167.374,377.106 185.952 C 377.215 203.743,377.364 202.654,374.817 202.654 C 372.371 202.654,372.549 203.825,372.378 186.653 C 372.215 170.236,372.189 169.964,370.499 166.595 C 365.351 156.332,349.064 157.055,343.749 167.782 C 341.975 171.363,341.891 172.258,341.881 187.827 C 341.870 203.519,342.010 202.654,339.482 202.654 C 336.850 202.654,337.094 206.101,337.094 168.836 C 337.094 143.861,337.168 136.196,337.412 135.952 C 337.886 135.478,339.792 135.573,340.447 136.104 M209.403 145.092 C 209.914 145.742,209.954 146.137,209.954 150.638 C 209.954 156.465,208.974 155.806,217.643 155.806 C 225.531 155.806,225.734 155.858,225.734 157.880 C 225.734 160.046,225.709 160.053,217.764 160.053 C 213.930 160.053,210.604 160.126,210.373 160.214 C 209.861 160.411,209.732 189.485,210.231 192.320 C 211.515 199.617,219.010 201.875,224.147 196.514 C 225.791 194.798,227.269 195.750,226.813 198.231 C 225.822 203.620,214.219 205.297,209.193 200.778 C 205.463 197.424,205.355 196.775,205.240 177.050 C 205.176 166.027,205.054 160.624,204.863 160.394 C 204.663 160.153,203.678 160.052,201.494 160.049 C 198.226 160.045,197.999 159.989,197.518 159.075 C 196.338 156.832,197.557 155.807,201.413 155.802 C 205.462 155.797,205.127 156.271,205.225 150.402 C 205.307 145.520,205.323 145.395,205.935 144.900 C 206.912 144.109,208.709 144.209,209.403 145.092 M261.505 155.646 C 270.652 158.162,276.564 166.618,276.574 177.198 C 276.577 180.066,278.471 179.816,256.071 179.899 L 236.684 179.970 236.843 182.040 C 238.183 199.407,262.102 205.794,271.396 191.266 C 272.475 189.579,272.947 189.442,274.158 190.461 C 277.605 193.362,271.689 199.991,263.549 202.349 C 249.690 206.363,236.090 199.339,232.792 186.463 C 227.858 167.198,243.290 150.634,261.505 155.646 M310.683 155.015 C 315.878 155.593,319.845 157.401,323.183 160.711 C 327.183 164.676,328.148 168.476,325.440 169.598 C 324.274 170.081,323.987 169.870,322.861 167.702 C 316.534 155.515,297.083 156.354,290.815 169.083 C 283.399 184.145,294.073 201.155,309.640 199.084 C 316.280 198.200,320.663 195.197,323.318 189.715 C 324.073 188.154,325.001 187.999,326.231 189.230 C 328.936 191.935,323.299 199.317,316.604 201.837 C 300.681 207.831,284.593 197.508,283.569 180.639 C 282.600 164.670,294.698 153.235,310.683 155.015 M151.289 155.410 C 130.313 160.113,126.553 191.515,145.853 200.800 C 156.392 205.870,171.747 202.619,175.685 194.485 C 177.404 190.934,174.698 188.532,172.591 191.737 C 163.975 204.842,142.280 200.392,138.465 184.738 C 137.377 180.269,137.563 179.634,139.929 179.752 C 146.252 180.067,176.518 179.649,176.926 179.241 C 178.095 178.072,176.695 169.895,174.598 165.641 C 170.715 157.767,160.593 153.323,151.289 155.410 M68.296 155.971 C 67.090 156.566,67.084 156.503,69.210 164.558 C 70.271 168.577,72.813 178.315,74.860 186.198 C 79.475 203.981,79.093 203.187,82.794 202.680 C 85.093 202.365,84.444 203.704,89.880 188.056 C 95.902 170.719,96.752 168.414,97.121 168.414 C 97.357 168.414,98.031 170.018,99.018 172.926 C 106.000 193.502,108.650 201.145,108.976 201.649 C 109.799 202.923,113.514 203.083,114.632 201.893 C 115.194 201.294,115.271 201.027,119.177 185.932 C 120.235 181.845,121.787 175.873,122.626 172.661 C 127.311 154.735,126.925 156.787,125.747 156.069 C 124.643 155.396,123.937 155.403,123.056 156.095 C 121.811 157.075,121.863 156.909,118.944 169.078 C 118.506 170.902,117.671 174.366,117.089 176.775 C 116.507 179.184,115.175 184.738,114.130 189.117 C 113.085 193.497,112.140 197.175,112.030 197.291 C 111.641 197.698,111.265 196.679,106.173 181.420 C 99.477 161.351,100.377 163.137,96.961 163.126 C 94.535 163.119,94.014 163.555,93.078 166.376 C 92.706 167.497,90.415 174.267,87.986 181.420 C 85.558 188.573,83.390 195.023,83.168 195.753 C 82.222 198.870,82.556 199.871,77.373 178.368 C 72.141 156.662,72.272 157.118,70.971 156.095 C 70.135 155.437,69.444 155.405,68.296 155.971 M162.309 159.888 C 168.176 162.151,172.498 168.003,172.624 173.855 L 172.661 175.581 155.600 175.649 C 136.087 175.727,137.888 176.000,138.636 173.074 C 141.323 162.561,152.746 156.199,162.309 159.888 M251.625 159.368 C 244.692 160.822,239.567 165.748,237.571 172.877 C 236.696 176.000,235.009 175.713,254.280 175.713 C 273.224 175.713,271.663 175.935,271.251 173.306 C 269.696 163.376,261.219 157.355,251.625 159.368 " stroke="none" fill="#fbfbfb" fill-rule="evenodd"></path></g></svg>