<svg id="svg" version="1.1" width="400" height="154" viewBox="0 0 400 154" xmlns="http://www.w3.org/2000/svg" xmlns:xlink="http://www.w3.org/1999/xlink" ><g id="svgg"><path id="path0" d="M10.083 8.389 C 9.228 8.777,9.133 9.002,9.326 10.191 C 9.424 10.795,9.498 14.224,9.499 18.176 L 9.500 25.101 10.047 25.631 C 10.956 26.512,12.442 27.301,14.225 27.849 C 15.156 28.135,16.367 28.618,16.917 28.923 C 17.467 29.227,18.629 29.673,19.500 29.914 C 20.371 30.154,21.496 30.602,22.000 30.908 C 22.504 31.214,23.541 31.632,24.305 31.837 C 25.127 32.058,26.020 32.435,26.496 32.763 C 27.013 33.118,27.876 33.469,28.917 33.746 C 30.580 34.188,31.288 34.484,31.980 35.023 C 32.199 35.193,33.136 35.566,34.064 35.851 C 34.991 36.136,36.200 36.617,36.750 36.921 C 37.300 37.224,38.425 37.675,39.250 37.924 C 40.075 38.172,41.275 38.659,41.917 39.007 C 42.558 39.354,43.646 39.802,44.333 40.002 C 45.021 40.201,46.108 40.650,46.750 40.998 C 47.392 41.347,48.592 41.833,49.417 42.080 C 50.242 42.327,51.268 42.752,51.697 43.024 C 52.126 43.297,53.101 43.710,53.863 43.942 C 54.626 44.174,55.775 44.650,56.417 44.999 C 57.058 45.347,58.183 45.795,58.917 45.994 C 59.650 46.192,60.813 46.641,61.502 46.992 C 62.191 47.342,63.316 47.794,64.002 47.995 C 64.688 48.196,65.737 48.646,66.333 48.995 C 66.929 49.345,68.129 49.829,69.000 50.072 C 69.871 50.314,71.002 50.769,71.513 51.082 C 72.024 51.395,73.111 51.845,73.929 52.082 C 77.142 53.011,76.282 54.711,71.990 55.918 C 71.125 56.162,70.048 56.584,69.598 56.857 C 69.147 57.130,68.285 57.506,67.681 57.692 C 65.725 58.295,64.918 58.619,64.263 59.064 C 63.909 59.304,62.862 59.733,61.935 60.018 C 61.008 60.303,59.800 60.784,59.250 61.089 C 58.700 61.393,57.771 61.765,57.186 61.915 C 55.822 62.264,54.901 62.629,54.159 63.113 C 53.834 63.325,52.794 63.760,51.848 64.078 C 50.902 64.397,49.788 64.857,49.372 65.101 C 48.956 65.345,47.822 65.801,46.851 66.116 C 45.881 66.430,44.760 66.905,44.360 67.170 C 43.960 67.435,42.902 67.878,42.008 68.156 C 41.115 68.434,39.968 68.911,39.460 69.217 C 38.952 69.523,37.872 69.945,37.060 70.154 C 36.205 70.375,35.127 70.803,34.500 71.172 C 33.904 71.522,32.742 72.010,31.917 72.257 C 31.092 72.504,30.004 72.954,29.500 73.257 C 28.996 73.559,27.997 73.964,27.280 74.156 C 25.704 74.578,25.106 74.821,24.309 75.364 C 23.975 75.592,22.963 75.985,22.059 76.238 C 21.156 76.491,19.965 76.948,19.413 77.253 C 18.862 77.557,17.707 78.004,16.847 78.246 C 15.965 78.494,14.819 78.966,14.219 79.328 C 13.634 79.681,12.764 80.060,12.286 80.171 C 10.798 80.516,10.355 80.803,9.873 81.732 L 9.431 82.583 9.471 89.750 C 9.492 93.692,9.508 97.126,9.505 97.383 C 9.494 98.418,10.642 98.947,11.706 98.396 C 11.993 98.248,12.909 97.946,13.739 97.725 C 14.570 97.505,15.438 97.188,15.667 97.021 C 16.423 96.471,17.090 96.193,18.512 95.836 C 19.284 95.641,20.329 95.233,20.833 94.927 C 21.337 94.622,22.425 94.170,23.250 93.923 C 24.075 93.676,25.133 93.260,25.600 92.999 C 26.068 92.738,27.230 92.284,28.184 91.990 C 29.137 91.695,30.467 91.165,31.139 90.811 C 31.812 90.456,32.464 90.167,32.589 90.167 C 33.101 90.167,35.557 89.285,36.293 88.837 C 36.728 88.572,37.879 88.129,38.851 87.852 C 39.824 87.575,40.986 87.127,41.435 86.855 C 41.883 86.583,42.954 86.163,43.814 85.921 C 44.675 85.679,45.875 85.225,46.481 84.912 C 47.087 84.599,48.183 84.186,48.917 83.995 C 49.650 83.803,50.656 83.419,51.152 83.140 C 51.649 82.861,52.811 82.409,53.736 82.135 C 54.660 81.861,55.868 81.387,56.420 81.082 C 56.972 80.776,58.133 80.327,59.000 80.083 C 59.867 79.839,61.028 79.391,61.580 79.086 C 62.132 78.782,63.256 78.331,64.079 78.083 C 64.902 77.836,66.069 77.384,66.672 77.080 C 67.276 76.776,68.215 76.405,68.760 76.255 C 70.249 75.844,71.185 75.486,71.839 75.076 C 72.164 74.873,73.289 74.437,74.339 74.107 C 78.693 72.739,78.541 73.183,78.426 62.167 C 78.375 57.262,78.352 52.913,78.375 52.500 C 78.398 52.087,78.417 48.188,78.417 43.833 C 78.417 34.059,78.553 34.644,76.083 33.837 C 75.442 33.628,74.467 33.208,73.917 32.905 C 73.367 32.602,72.317 32.192,71.583 31.994 C 70.850 31.796,69.725 31.369,69.083 31.046 C 68.442 30.722,67.279 30.273,66.500 30.048 C 65.721 29.823,64.558 29.353,63.917 29.003 C 63.275 28.653,62.150 28.205,61.417 28.006 C 60.683 27.808,59.596 27.398,59.000 27.095 C 58.404 26.792,57.242 26.339,56.417 26.089 C 55.592 25.838,54.467 25.383,53.917 25.077 C 53.367 24.771,52.317 24.364,51.583 24.172 C 50.850 23.980,49.650 23.532,48.917 23.176 C 48.183 22.819,46.983 22.365,46.250 22.166 C 45.517 21.967,44.441 21.546,43.859 21.230 C 43.277 20.914,42.002 20.426,41.026 20.146 C 40.049 19.866,38.912 19.423,38.500 19.162 C 38.087 18.900,37.037 18.483,36.167 18.236 C 35.296 17.988,34.021 17.503,33.333 17.159 C 32.646 16.814,31.483 16.371,30.750 16.173 C 30.017 15.975,28.967 15.564,28.417 15.260 C 27.867 14.956,26.704 14.504,25.833 14.257 C 24.962 14.009,23.725 13.519,23.083 13.166 C 22.442 12.814,21.279 12.366,20.500 12.171 C 19.606 11.947,18.776 11.609,18.250 11.254 C 17.754 10.919,16.775 10.509,15.833 10.241 C 14.095 9.748,13.720 9.583,12.584 8.817 C 11.700 8.220,10.797 8.065,10.083 8.389 M200.351 31.937 C 200.112 32.040,199.740 32.316,199.523 32.551 L 199.129 32.978 199.087 65.447 C 199.064 83.305,198.990 98.190,198.923 98.523 C 198.813 99.070,198.863 99.198,199.428 99.824 C 200.395 100.894,200.320 100.880,205.026 100.880 C 209.667 100.880,209.818 100.854,210.418 99.939 C 210.731 99.460,210.829 33.281,210.517 32.698 C 210.065 31.854,209.759 31.802,205.124 31.775 C 202.232 31.758,200.641 31.812,200.351 31.937 M168.291 52.113 C 165.304 52.341,164.871 52.451,161.634 53.804 C 158.781 54.997,155.434 57.714,153.898 60.084 C 153.542 60.634,153.049 61.346,152.804 61.667 C 152.559 61.988,152.096 62.962,151.776 63.833 C 151.456 64.704,151.004 65.870,150.771 66.423 C 150.361 67.401,149.861 70.397,149.508 74.000 C 149.275 76.375,149.635 81.151,150.359 85.308 C 150.461 85.890,150.786 86.827,151.083 87.391 C 151.379 87.955,151.788 88.923,151.991 89.542 C 152.197 90.170,152.618 90.976,152.942 91.364 C 153.262 91.747,153.674 92.354,153.856 92.712 C 154.462 93.898,158.464 97.593,159.750 98.153 C 160.208 98.352,161.071 98.803,161.667 99.155 C 164.629 100.905,174.208 102.121,178.167 101.250 C 178.762 101.119,179.521 101.009,179.853 101.006 C 180.185 101.003,181.998 100.667,183.882 100.260 C 189.921 98.954,191.161 97.726,189.189 95.005 C 188.912 94.622,188.557 93.921,188.400 93.446 C 187.671 91.236,186.737 91.121,182.548 92.729 C 177.739 94.574,171.544 94.212,166.545 91.794 C 166.146 91.601,163.361 88.719,162.533 87.643 C 162.417 87.492,162.169 86.817,161.982 86.143 C 161.796 85.468,161.414 84.516,161.134 84.026 C 160.674 83.223,160.635 83.044,160.734 82.204 C 160.925 80.582,161.259 80.437,166.000 79.917 C 167.971 79.701,170.521 79.372,171.667 79.186 C 176.774 78.356,178.370 78.142,181.783 77.824 C 183.781 77.638,185.829 77.384,186.333 77.260 C 186.838 77.136,187.700 76.987,188.250 76.929 C 191.149 76.624,192.002 76.001,191.996 74.196 C 191.988 71.458,191.687 68.381,191.332 67.403 C 191.135 66.861,190.728 65.534,190.429 64.454 C 190.052 63.099,189.700 62.223,189.291 61.621 C 188.966 61.142,188.475 60.300,188.201 59.750 C 187.903 59.152,187.425 58.527,187.012 58.196 C 186.632 57.891,186.138 57.364,185.913 57.025 C 185.689 56.686,185.260 56.267,184.961 56.094 C 184.662 55.920,184.140 55.533,183.802 55.232 C 183.054 54.567,182.537 54.293,180.965 53.726 C 180.299 53.486,179.604 53.193,179.419 53.076 C 178.525 52.506,177.427 52.344,171.750 51.947 C 171.383 51.921,169.827 51.996,168.291 52.113 M366.750 52.100 C 363.767 52.292,362.804 52.417,361.583 52.773 C 357.793 53.877,356.803 54.140,356.016 54.248 C 353.157 54.641,352.965 58.160,355.663 60.733 C 356.811 61.828,357.106 61.875,358.257 61.145 C 359.357 60.447,360.105 60.201,361.994 59.916 C 362.868 59.785,364.183 59.514,364.917 59.315 C 367.917 58.501,373.648 59.090,375.583 60.410 C 377.577 61.770,378.408 63.325,378.765 66.362 C 378.966 68.072,377.993 69.400,376.417 69.569 C 375.958 69.619,374.121 69.813,372.333 70.003 C 370.546 70.192,368.558 70.502,367.917 70.691 C 367.275 70.881,365.493 71.362,363.957 71.761 C 361.913 72.291,360.967 72.621,360.429 72.991 C 360.025 73.269,359.167 73.692,358.521 73.932 C 357.754 74.216,357.028 74.646,356.428 75.171 C 355.923 75.613,355.371 76.018,355.202 76.072 C 353.782 76.523,350.682 81.651,350.339 84.118 C 349.955 86.880,350.231 90.629,350.895 91.667 C 351.100 91.987,351.442 92.659,351.653 93.158 C 352.517 95.198,354.639 97.433,356.616 98.386 C 357.275 98.704,358.037 99.123,358.309 99.316 C 358.818 99.678,361.589 100.370,365.140 101.022 C 367.905 101.529,373.559 101.647,376.483 101.258 C 384.317 100.215,388.207 99.166,389.570 97.727 L 390.023 97.250 389.949 81.083 C 389.872 64.237,389.859 63.945,389.168 62.667 C 389.044 62.438,388.667 61.524,388.330 60.636 C 387.310 57.948,384.224 54.763,381.896 53.997 C 381.266 53.790,380.337 53.417,379.833 53.168 C 378.533 52.527,377.690 52.357,374.887 52.167 C 373.528 52.076,371.967 51.970,371.417 51.932 C 370.867 51.894,368.767 51.970,366.750 52.100 M235.653 52.163 C 234.478 52.256,233.506 52.442,232.737 52.722 C 230.352 53.589,228.236 54.533,227.833 54.908 C 227.604 55.122,227.079 55.465,226.667 55.672 C 225.618 56.196,222.442 59.489,221.919 60.593 C 221.695 61.067,221.248 61.770,220.926 62.156 C 220.603 62.542,220.268 63.133,220.181 63.470 C 220.094 63.807,219.936 64.421,219.831 64.833 C 219.726 65.246,219.432 65.958,219.178 66.417 C 218.047 68.455,217.407 76.216,217.986 80.875 C 218.085 81.677,218.243 82.976,218.336 83.761 C 218.454 84.747,218.654 85.482,218.986 86.139 C 219.250 86.661,219.667 87.748,219.912 88.553 C 220.181 89.433,220.544 90.230,220.823 90.550 C 221.078 90.844,221.589 91.620,221.960 92.277 C 222.330 92.933,222.937 93.745,223.309 94.082 C 223.681 94.418,224.031 94.837,224.087 95.013 C 224.143 95.189,224.540 95.568,224.969 95.856 C 225.399 96.145,226.055 96.690,226.428 97.069 C 226.848 97.495,227.545 97.941,228.261 98.241 C 228.897 98.507,229.717 98.934,230.083 99.191 C 230.782 99.679,233.040 100.311,236.874 101.092 C 240.632 101.857,245.348 101.637,251.455 100.410 C 253.034 100.093,254.472 99.833,254.649 99.833 C 255.526 99.833,257.677 98.416,258.076 97.576 C 258.675 96.312,256.287 91.682,255.030 91.670 C 254.437 91.665,251.400 92.470,250.264 92.934 C 247.073 94.238,239.953 94.104,236.866 92.682 C 236.052 92.307,235.303 92.000,235.202 92.000 C 234.868 92.000,232.310 89.596,231.997 88.988 C 231.829 88.661,231.428 88.079,231.107 87.695 C 230.307 86.738,229.150 83.211,229.286 82.144 C 229.492 80.526,229.766 80.404,234.313 79.916 C 236.295 79.703,239.867 79.219,242.250 78.841 C 244.633 78.462,247.371 78.082,248.333 77.995 C 252.574 77.611,253.498 77.496,254.833 77.183 C 255.612 77.001,256.813 76.806,257.500 76.750 C 260.586 76.498,260.671 76.267,259.988 69.926 C 259.692 67.177,259.576 66.596,259.093 65.426 C 258.787 64.688,258.379 63.551,258.186 62.900 C 257.993 62.250,257.649 61.462,257.422 61.150 C 257.194 60.839,256.801 60.210,256.546 59.754 C 256.292 59.298,255.615 58.455,255.042 57.881 C 254.469 57.306,254.000 56.760,254.000 56.666 C 254.000 56.572,253.569 56.224,253.042 55.891 C 252.515 55.559,251.873 55.077,251.616 54.821 C 251.327 54.533,250.623 54.181,249.782 53.904 C 249.031 53.656,248.051 53.271,247.605 53.047 C 245.902 52.194,240.404 51.787,235.653 52.163 M280.667 52.165 C 277.420 52.326,276.183 52.509,273.847 53.175 C 272.892 53.447,271.373 53.817,270.471 53.998 C 268.628 54.367,268.332 54.520,267.486 55.534 C 266.484 56.735,266.437 56.891,266.659 58.270 C 266.805 59.172,266.844 64.684,266.809 79.393 C 266.771 95.273,266.804 99.347,266.972 99.550 C 267.617 100.327,268.353 100.439,272.984 100.467 L 277.384 100.493 277.945 99.898 L 278.507 99.302 278.496 80.268 C 278.484 60.439,278.473 60.830,279.056 60.452 C 281.589 58.808,287.189 58.277,290.110 59.405 C 293.184 60.592,293.982 61.315,295.274 64.083 L 295.663 64.917 295.665 82.113 L 295.667 99.310 296.222 99.898 L 296.777 100.487 301.347 100.440 C 306.280 100.388,306.880 100.292,307.376 99.472 C 307.576 99.141,307.596 96.428,307.514 81.250 L 307.417 63.417 307.022 62.677 C 306.805 62.270,306.416 61.302,306.157 60.526 C 305.791 59.431,305.521 58.942,304.953 58.349 C 304.550 57.928,304.062 57.371,303.868 57.112 C 303.564 56.706,302.219 55.653,300.688 54.622 C 300.447 54.459,299.725 54.166,299.083 53.970 C 298.442 53.774,297.339 53.367,296.634 53.067 C 294.505 52.160,288.066 51.796,280.667 52.165 M115.642 52.634 C 114.424 52.776,113.790 55.628,114.401 58.223 C 114.790 59.876,114.538 59.832,123.521 59.830 C 131.372 59.828,131.230 59.816,131.589 60.511 C 131.879 61.071,131.759 61.470,131.028 62.386 C 130.748 62.735,130.391 63.373,130.235 63.802 C 129.688 65.302,129.337 66.031,128.924 66.521 C 128.696 66.793,128.360 67.497,128.178 68.085 C 127.796 69.323,127.434 70.073,126.926 70.682 C 126.728 70.920,126.361 71.756,126.112 72.539 C 125.832 73.417,125.436 74.243,125.080 74.691 C 124.759 75.095,124.311 75.993,124.069 76.715 C 123.830 77.430,123.370 78.405,123.046 78.882 C 122.723 79.359,122.289 80.242,122.083 80.843 C 121.667 82.058,121.244 82.949,120.896 83.347 C 120.770 83.491,120.410 84.263,120.097 85.061 C 119.784 85.859,119.301 86.865,119.024 87.298 C 118.748 87.730,118.283 88.744,117.991 89.552 C 117.700 90.360,117.293 91.222,117.087 91.469 C 116.618 92.031,116.323 92.628,115.837 94.000 C 115.626 94.596,115.248 95.348,114.998 95.671 C 112.722 98.616,113.302 100.924,116.219 100.521 C 116.940 100.421,123.066 100.360,131.599 100.366 C 149.121 100.379,147.667 100.679,147.667 97.050 C 147.667 94.629,147.593 94.439,146.445 93.904 L 145.583 93.503 137.531 93.502 C 132.302 93.501,129.365 93.440,129.156 93.327 C 128.642 93.053,128.833 91.451,129.494 90.500 C 129.653 90.271,129.983 89.554,130.227 88.908 C 130.471 88.262,130.924 87.340,131.233 86.859 C 131.543 86.379,131.968 85.452,132.178 84.799 C 132.388 84.146,132.818 83.230,133.134 82.764 C 133.450 82.298,133.923 81.288,134.185 80.519 C 134.447 79.751,134.882 78.776,135.152 78.353 C 135.422 77.929,135.873 76.953,136.153 76.182 C 136.434 75.411,136.919 74.398,137.231 73.932 C 137.544 73.465,137.963 72.521,138.164 71.833 C 138.381 71.090,138.756 70.289,139.090 69.858 C 139.398 69.459,139.853 68.521,140.099 67.775 C 140.346 67.028,140.833 65.941,141.181 65.360 C 141.529 64.778,141.974 63.809,142.168 63.207 C 142.363 62.605,142.815 61.626,143.172 61.034 C 143.530 60.441,143.936 59.572,144.076 59.103 C 144.331 58.240,145.024 56.970,145.705 56.117 C 146.253 55.430,146.355 53.325,145.862 52.902 C 145.553 52.638,117.739 52.392,115.642 52.634 M314.586 52.959 C 313.430 54.116,313.446 58.575,314.610 59.491 C 315.034 59.824,315.234 59.833,322.331 59.833 C 329.715 59.833,330.365 59.881,331.042 60.466 C 331.434 60.805,331.409 61.051,330.927 61.624 C 330.703 61.890,330.291 62.685,330.011 63.390 C 329.731 64.095,329.317 64.952,329.091 65.294 C 328.865 65.637,328.411 66.586,328.082 67.405 C 327.753 68.224,327.226 69.311,326.912 69.822 C 326.597 70.332,326.156 71.292,325.931 71.954 C 325.707 72.616,325.294 73.443,325.013 73.792 C 324.733 74.140,324.282 75.083,324.010 75.887 C 323.738 76.691,323.284 77.642,323.000 78.000 C 322.716 78.358,322.268 79.290,322.005 80.070 C 321.741 80.850,321.295 81.774,321.015 82.124 C 320.734 82.473,320.282 83.417,320.010 84.220 C 319.738 85.024,319.297 85.960,319.029 86.299 C 318.762 86.639,318.345 87.466,318.103 88.138 C 317.585 89.581,317.410 89.932,316.908 90.536 C 316.701 90.785,316.331 91.589,316.087 92.323 C 315.842 93.057,315.348 94.091,314.988 94.620 C 314.628 95.150,314.179 96.048,313.990 96.615 C 313.801 97.183,313.431 97.968,313.168 98.359 C 312.453 99.424,313.433 100.610,314.955 100.520 C 315.209 100.505,322.228 100.469,330.553 100.440 L 345.690 100.388 346.283 99.795 L 346.876 99.202 346.962 97.243 C 347.135 93.331,347.515 93.474,337.061 93.511 C 327.496 93.545,328.226 93.680,328.415 91.917 C 328.474 91.367,328.632 90.767,328.767 90.583 C 328.901 90.400,329.190 90.004,329.409 89.704 C 329.627 89.403,329.996 88.595,330.227 87.906 C 330.458 87.218,330.883 86.359,331.170 85.996 C 331.459 85.631,331.903 84.694,332.164 83.897 C 332.423 83.105,332.783 82.258,332.962 82.015 C 333.464 81.337,333.930 80.344,334.223 79.333 C 334.369 78.829,334.752 78.009,335.074 77.511 C 335.396 77.013,335.851 76.030,336.086 75.326 C 336.320 74.622,336.745 73.680,337.031 73.232 C 337.316 72.783,337.771 71.779,338.041 71.000 C 338.310 70.221,338.789 69.204,339.105 68.740 C 339.421 68.276,339.905 67.235,340.182 66.427 C 340.458 65.619,340.907 64.681,341.180 64.342 C 341.457 63.997,341.898 63.043,342.183 62.172 C 342.470 61.292,342.908 60.346,343.191 59.995 C 343.466 59.653,343.867 58.801,344.083 58.101 C 344.368 57.177,344.666 56.613,345.173 56.039 C 345.865 55.255,345.869 55.243,345.786 54.190 C 345.646 52.415,347.295 52.583,330.058 52.583 L 314.962 52.583 314.586 52.959 M175.155 59.668 C 177.993 61.115,179.737 63.385,180.244 66.294 C 180.400 67.186,180.595 68.179,180.679 68.500 C 181.390 71.222,180.583 72.128,177.130 72.487 C 176.055 72.598,174.368 72.872,173.380 73.096 C 171.687 73.479,169.849 73.750,166.167 74.162 C 165.296 74.260,163.782 74.464,162.804 74.617 C 160.776 74.933,160.732 74.918,160.170 73.757 C 159.601 72.582,160.185 67.814,161.090 66.236 C 161.305 65.862,161.711 64.978,161.991 64.272 C 162.708 62.467,164.444 60.737,166.401 59.877 C 167.143 59.552,167.921 59.174,168.129 59.037 C 168.781 58.611,169.523 58.508,171.381 58.585 L 173.178 58.660 175.155 59.668 M243.306 59.587 C 244.754 60.252,245.378 60.637,245.750 61.094 C 246.025 61.431,246.559 62.020,246.937 62.402 C 247.456 62.925,247.711 63.382,247.975 64.256 C 250.117 71.360,249.962 71.915,245.696 72.441 C 244.647 72.570,242.767 72.891,241.519 73.155 C 240.271 73.419,238.387 73.720,237.333 73.824 C 236.279 73.929,234.047 74.206,232.372 74.441 C 229.008 74.912,228.976 74.909,228.502 74.131 C 227.882 73.114,228.205 69.407,229.101 67.259 C 229.332 66.704,229.657 65.873,229.822 65.413 C 231.861 59.735,237.926 57.115,243.306 59.587 M378.414 75.511 C 378.811 76.187,379.033 91.473,378.666 92.837 C 378.438 93.681,377.728 94.170,375.917 94.727 C 372.794 95.689,370.692 95.619,367.151 94.437 C 363.420 93.192,362.294 91.890,361.480 87.885 C 361.018 85.608,362.098 81.068,363.290 80.276 C 363.544 80.106,363.965 79.673,364.224 79.313 C 364.500 78.929,365.050 78.479,365.555 78.225 C 366.029 77.987,366.904 77.507,367.500 77.159 C 368.688 76.465,370.241 75.972,372.167 75.678 C 372.854 75.572,374.241 75.272,375.249 75.009 C 377.368 74.458,377.839 74.533,378.414 75.511 M10.446 100.923 C 9.531 102.070,9.536 102.024,9.480 109.917 L 9.428 117.250 10.130 118.282 C 10.895 119.406,10.626 119.268,14.041 120.273 C 14.476 120.401,15.172 120.722,15.589 120.987 C 16.006 121.251,16.962 121.631,17.715 121.831 C 18.468 122.031,19.545 122.445,20.108 122.752 C 20.672 123.058,21.910 123.547,22.858 123.837 C 23.807 124.128,24.971 124.585,25.445 124.854 C 25.918 125.122,27.118 125.599,28.111 125.914 C 29.104 126.228,30.176 126.677,30.493 126.911 C 30.810 127.145,31.897 127.596,32.909 127.913 C 33.922 128.230,35.019 128.674,35.349 128.900 C 35.678 129.125,36.766 129.582,37.766 129.915 C 38.765 130.247,39.846 130.690,40.167 130.899 C 40.817 131.321,41.684 131.657,43.417 132.156 C 44.058 132.341,44.860 132.681,45.198 132.912 C 45.536 133.142,46.599 133.586,47.561 133.898 C 48.523 134.210,49.746 134.730,50.280 135.055 C 50.813 135.379,51.925 135.845,52.750 136.090 C 53.575 136.335,54.625 136.743,55.083 136.997 C 55.542 137.251,56.667 137.703,57.583 138.002 C 58.500 138.300,59.700 138.790,60.250 139.091 C 60.800 139.392,61.925 139.841,62.750 140.089 C 63.575 140.336,64.700 140.786,65.250 141.088 C 65.800 141.390,67.000 141.868,67.917 142.152 C 68.833 142.435,69.916 142.893,70.322 143.170 C 70.729 143.447,71.774 143.897,72.646 144.169 C 73.518 144.442,74.508 144.848,74.847 145.072 C 76.670 146.279,77.876 146.242,78.321 144.964 C 78.683 143.926,78.550 128.876,78.172 128.043 C 77.683 126.967,77.170 126.559,75.809 126.165 C 73.964 125.631,73.144 125.317,72.500 124.899 C 72.179 124.691,71.132 124.289,70.173 124.006 C 69.214 123.723,68.039 123.272,67.562 123.002 C 67.085 122.733,65.996 122.317,65.142 122.076 C 64.288 121.836,63.138 121.390,62.587 121.084 C 62.035 120.778,60.908 120.327,60.083 120.081 C 59.258 119.835,58.132 119.385,57.580 119.080 C 57.028 118.776,55.875 118.329,55.018 118.088 C 54.160 117.847,52.960 117.399,52.350 117.092 C 51.740 116.785,50.569 116.331,49.746 116.084 C 48.923 115.837,47.867 115.422,47.398 115.162 C 46.930 114.903,45.730 114.455,44.731 114.168 C 43.733 113.881,42.504 113.399,42.000 113.096 C 41.496 112.794,40.446 112.378,39.667 112.173 C 38.887 111.967,37.800 111.550,37.250 111.247 C 36.700 110.943,35.425 110.460,34.417 110.172 C 33.408 109.884,32.301 109.454,31.956 109.217 C 31.611 108.979,30.526 108.567,29.543 108.300 C 28.561 108.033,27.364 107.589,26.884 107.315 C 26.403 107.040,25.256 106.561,24.333 106.250 C 23.411 105.939,22.247 105.451,21.746 105.165 C 21.246 104.878,20.080 104.428,19.156 104.164 C 18.232 103.900,17.238 103.533,16.946 103.349 C 15.801 102.625,15.458 102.484,14.210 102.227 C 12.657 101.908,11.832 101.514,11.305 100.841 L 10.912 100.339 10.446 100.923 " stroke="none" fill="#421a6f" fill-rule="evenodd"></path><path id="path1" d="M0.000 77.000 L 0.000 154.000 200.000 154.000 L 400.000 154.000 400.000 77.000 L 400.000 0.000 200.000 0.000 L 0.000 0.000 0.000 77.000 M12.584 8.817 C 13.720 9.583,14.095 9.748,15.833 10.241 C 16.775 10.509,17.754 10.919,18.250 11.254 C 18.776 11.609,19.606 11.947,20.500 12.171 C 21.279 12.366,22.442 12.814,23.083 13.166 C 23.725 13.519,24.962 14.009,25.833 14.257 C 26.704 14.504,27.867 14.956,28.417 15.260 C 28.967 15.564,30.017 15.975,30.750 16.173 C 31.483 16.371,32.646 16.814,33.333 17.159 C 34.021 17.503,35.296 17.988,36.167 18.236 C 37.037 18.483,38.087 18.900,38.500 19.162 C 38.912 19.423,40.049 19.866,41.026 20.146 C 42.002 20.426,43.277 20.914,43.859 21.230 C 44.441 21.546,45.517 21.967,46.250 22.166 C 46.983 22.365,48.183 22.819,48.917 23.176 C 49.650 23.532,50.850 23.980,51.583 24.172 C 52.317 24.364,53.367 24.771,53.917 25.077 C 54.467 25.383,55.592 25.838,56.417 26.089 C 57.242 26.339,58.404 26.792,59.000 27.095 C 59.596 27.398,60.683 27.808,61.417 28.006 C 62.150 28.205,63.275 28.653,63.917 29.003 C 64.558 29.353,65.721 29.823,66.500 30.048 C 67.279 30.273,68.442 30.722,69.083 31.046 C 69.725 31.369,70.850 31.796,71.583 31.994 C 72.317 32.192,73.367 32.602,73.917 32.905 C 74.467 33.208,75.442 33.628,76.083 33.837 C 78.553 34.644,78.417 34.059,78.417 43.833 C 78.417 48.188,78.398 52.087,78.375 52.500 C 78.352 52.913,78.375 57.262,78.426 62.167 C 78.541 73.183,78.693 72.739,74.339 74.107 C 73.289 74.437,72.164 74.873,71.839 75.076 C 71.185 75.486,70.249 75.844,68.760 76.255 C 68.215 76.405,67.276 76.776,66.672 77.080 C 66.069 77.384,64.902 77.836,64.079 78.083 C 63.256 78.331,62.132 78.782,61.580 79.086 C 61.028 79.391,59.867 79.839,59.000 80.083 C 58.133 80.327,56.972 80.776,56.420 81.082 C 55.868 81.387,54.660 81.861,53.736 82.135 C 52.811 82.409,51.649 82.861,51.152 83.140 C 50.656 83.419,49.650 83.803,48.917 83.995 C 48.183 84.186,47.087 84.599,46.481 84.912 C 45.875 85.225,44.675 85.679,43.814 85.921 C 42.954 86.163,41.883 86.583,41.435 86.855 C 40.986 87.127,39.824 87.575,38.851 87.852 C 37.879 88.129,36.728 88.572,36.293 88.837 C 35.557 89.285,33.101 90.167,32.589 90.167 C 32.464 90.167,31.812 90.456,31.139 90.811 C 30.467 91.165,29.137 91.695,28.184 91.990 C 27.230 92.284,26.068 92.738,25.600 92.999 C 25.133 93.260,24.075 93.676,23.250 93.923 C 22.425 94.170,21.337 94.622,20.833 94.927 C 20.329 95.233,19.284 95.641,18.512 95.836 C 17.090 96.193,16.423 96.471,15.667 97.021 C 15.438 97.188,14.570 97.505,13.739 97.725 C 12.909 97.946,11.993 98.248,11.706 98.396 C 10.642 98.947,9.494 98.418,9.505 97.383 C 9.508 97.126,9.492 93.692,9.471 89.750 L 9.431 82.583 9.873 81.732 C 10.355 80.803,10.798 80.516,12.286 80.171 C 12.764 80.060,13.634 79.681,14.219 79.328 C 14.819 78.966,15.965 78.494,16.847 78.246 C 17.707 78.004,18.862 77.557,19.413 77.253 C 19.965 76.948,21.156 76.491,22.059 76.238 C 22.963 75.985,23.975 75.592,24.309 75.364 C 25.106 74.821,25.704 74.578,27.280 74.156 C 27.997 73.964,28.996 73.559,29.500 73.257 C 30.004 72.954,31.092 72.504,31.917 72.257 C 32.742 72.010,33.904 71.522,34.500 71.172 C 35.127 70.803,36.205 70.375,37.060 70.154 C 37.872 69.945,38.952 69.523,39.460 69.217 C 39.968 68.911,41.115 68.434,42.008 68.156 C 42.902 67.878,43.960 67.435,44.360 67.170 C 44.760 66.905,45.881 66.430,46.851 66.116 C 47.822 65.801,48.956 65.345,49.372 65.101 C 49.788 64.857,50.902 64.397,51.848 64.078 C 52.794 63.760,53.834 63.325,54.159 63.113 C 54.901 62.629,55.822 62.264,57.186 61.915 C 57.771 61.765,58.700 61.393,59.250 61.089 C 59.800 60.784,61.008 60.303,61.935 60.018 C 62.862 59.733,63.909 59.304,64.263 59.064 C 64.918 58.619,65.725 58.295,67.681 57.692 C 68.285 57.506,69.147 57.130,69.598 56.857 C 70.048 56.584,71.125 56.162,71.990 55.918 C 76.282 54.711,77.142 53.011,73.929 52.082 C 73.111 51.845,72.024 51.395,71.513 51.082 C 71.002 50.769,69.871 50.314,69.000 50.072 C 68.129 49.829,66.929 49.345,66.333 48.995 C 65.737 48.646,64.688 48.196,64.002 47.995 C 63.316 47.794,62.191 47.342,61.502 46.992 C 60.813 46.641,59.650 46.192,58.917 45.994 C 58.183 45.795,57.058 45.347,56.417 44.999 C 55.775 44.650,54.626 44.174,53.863 43.942 C 53.101 43.710,52.126 43.297,51.697 43.024 C 51.268 42.752,50.242 42.327,49.417 42.080 C 48.592 41.833,47.392 41.347,46.750 40.998 C 46.108 40.650,45.021 40.201,44.333 40.002 C 43.646 39.802,42.558 39.354,41.917 39.007 C 41.275 38.659,40.075 38.172,39.250 37.924 C 38.425 37.675,37.300 37.224,36.750 36.921 C 36.200 36.617,34.991 36.136,34.064 35.851 C 33.136 35.566,32.199 35.193,31.980 35.023 C 31.288 34.484,30.580 34.188,28.917 33.746 C 27.876 33.469,27.013 33.118,26.496 32.763 C 26.020 32.435,25.127 32.058,24.305 31.837 C 23.541 31.632,22.504 31.214,22.000 30.908 C 21.496 30.602,20.371 30.154,19.500 29.914 C 18.629 29.673,17.467 29.227,16.917 28.923 C 16.367 28.618,15.156 28.135,14.225 27.849 C 12.442 27.301,10.956 26.512,10.047 25.631 L 9.500 25.101 9.499 18.176 C 9.498 14.224,9.424 10.795,9.326 10.191 C 9.011 8.251,10.694 7.541,12.584 8.817 M209.904 32.090 C 210.148 32.250,210.423 32.523,210.517 32.698 C 210.829 33.281,210.731 99.460,210.418 99.939 C 209.818 100.854,209.667 100.880,205.026 100.880 C 200.320 100.880,200.395 100.894,199.428 99.824 C 198.863 99.198,198.813 99.070,198.923 98.523 C 198.990 98.190,199.064 83.305,199.087 65.447 L 199.129 32.978 199.523 32.551 C 200.226 31.789,200.520 31.748,205.124 31.775 C 208.938 31.797,209.515 31.835,209.904 32.090 M174.873 52.172 C 177.260 52.345,178.732 52.638,179.419 53.076 C 179.604 53.193,180.299 53.486,180.965 53.726 C 182.537 54.293,183.054 54.567,183.802 55.232 C 184.140 55.533,184.662 55.920,184.961 56.094 C 185.260 56.267,185.689 56.686,185.913 57.025 C 186.138 57.364,186.632 57.891,187.012 58.196 C 187.425 58.527,187.903 59.152,188.201 59.750 C 188.475 60.300,188.966 61.142,189.291 61.621 C 189.700 62.223,190.052 63.099,190.429 64.454 C 190.728 65.534,191.135 66.861,191.332 67.403 C 191.687 68.381,191.988 71.458,191.996 74.196 C 192.002 76.001,191.149 76.624,188.250 76.929 C 187.700 76.987,186.838 77.136,186.333 77.260 C 185.829 77.384,183.781 77.638,181.783 77.824 C 178.370 78.142,176.774 78.356,171.667 79.186 C 170.521 79.372,167.971 79.701,166.000 79.917 C 161.259 80.437,160.925 80.582,160.734 82.204 C 160.635 83.044,160.674 83.223,161.134 84.026 C 161.414 84.516,161.796 85.468,161.982 86.143 C 162.169 86.817,162.417 87.492,162.533 87.643 C 163.361 88.719,166.146 91.601,166.545 91.794 C 171.544 94.212,177.739 94.574,182.548 92.729 C 186.737 91.121,187.671 91.236,188.400 93.446 C 188.557 93.921,188.912 94.622,189.189 95.005 C 191.161 97.726,189.921 98.954,183.882 100.260 C 181.998 100.667,180.185 101.003,179.853 101.006 C 179.521 101.009,178.762 101.119,178.167 101.250 C 174.208 102.121,164.629 100.905,161.667 99.155 C 161.071 98.803,160.208 98.352,159.750 98.153 C 158.464 97.593,154.462 93.898,153.856 92.712 C 153.674 92.354,153.262 91.747,152.942 91.364 C 152.618 90.976,152.197 90.170,151.991 89.542 C 151.788 88.923,151.379 87.955,151.083 87.391 C 150.786 86.827,150.461 85.890,150.359 85.308 C 149.635 81.151,149.275 76.375,149.508 74.000 C 149.861 70.397,150.361 67.401,150.771 66.423 C 151.004 65.870,151.456 64.704,151.776 63.833 C 152.096 62.962,152.559 61.988,152.804 61.667 C 153.049 61.346,153.542 60.634,153.898 60.084 C 155.928 56.952,159.430 54.492,164.374 52.727 C 165.505 52.323,170.133 51.834,171.750 51.947 C 172.117 51.973,173.522 52.074,174.873 52.172 M374.887 52.167 C 377.690 52.357,378.533 52.527,379.833 53.168 C 380.337 53.417,381.266 53.790,381.896 53.997 C 384.224 54.763,387.310 57.948,388.330 60.636 C 388.667 61.524,389.044 62.438,389.168 62.667 C 389.859 63.945,389.872 64.237,389.949 81.083 L 390.023 97.250 389.570 97.727 C 388.207 99.166,384.317 100.215,376.483 101.258 C 373.559 101.647,367.905 101.529,365.140 101.022 C 361.589 100.370,358.818 99.678,358.309 99.316 C 358.037 99.123,357.275 98.704,356.616 98.386 C 354.639 97.433,352.517 95.198,351.653 93.158 C 351.442 92.659,351.100 91.987,350.895 91.667 C 350.231 90.629,349.955 86.880,350.339 84.118 C 350.682 81.651,353.782 76.523,355.202 76.072 C 355.371 76.018,355.923 75.613,356.428 75.171 C 357.028 74.646,357.754 74.216,358.521 73.932 C 359.167 73.692,360.025 73.269,360.429 72.991 C 360.967 72.621,361.913 72.291,363.957 71.761 C 365.493 71.362,367.275 70.881,367.917 70.691 C 368.558 70.502,370.546 70.192,372.333 70.003 C 374.121 69.813,375.958 69.619,376.417 69.569 C 377.993 69.400,378.966 68.072,378.765 66.362 C 378.408 63.325,377.577 61.770,375.583 60.410 C 373.648 59.090,367.917 58.501,364.917 59.315 C 364.183 59.514,362.868 59.785,361.994 59.916 C 360.105 60.201,359.357 60.447,358.257 61.145 C 357.106 61.875,356.811 61.828,355.663 60.733 C 352.965 58.160,353.157 54.641,356.016 54.248 C 356.803 54.140,357.793 53.877,361.583 52.773 C 363.186 52.306,369.273 51.785,371.417 51.932 C 371.967 51.970,373.528 52.076,374.887 52.167 M245.689 52.400 C 246.296 52.533,247.159 52.824,247.605 53.047 C 248.051 53.271,249.031 53.656,249.782 53.904 C 250.623 54.181,251.327 54.533,251.616 54.821 C 251.873 55.077,252.515 55.559,253.042 55.891 C 253.569 56.224,254.000 56.572,254.000 56.666 C 254.000 56.760,254.469 57.306,255.042 57.881 C 255.615 58.455,256.292 59.298,256.546 59.754 C 256.801 60.210,257.194 60.839,257.422 61.150 C 257.649 61.462,257.993 62.250,258.186 62.900 C 258.379 63.551,258.787 64.688,259.093 65.426 C 259.576 66.596,259.692 67.177,259.988 69.926 C 260.488 74.569,260.482 75.190,259.933 75.910 C 259.439 76.558,259.310 76.602,257.500 76.750 C 256.813 76.806,255.612 77.001,254.833 77.183 C 253.498 77.496,252.574 77.611,248.333 77.995 C 247.371 78.082,244.633 78.462,242.250 78.841 C 239.867 79.219,236.295 79.703,234.313 79.916 C 229.766 80.404,229.492 80.526,229.286 82.144 C 229.150 83.211,230.307 86.738,231.107 87.695 C 231.428 88.079,231.829 88.661,231.997 88.988 C 232.310 89.596,234.868 92.000,235.202 92.000 C 235.303 92.000,236.052 92.307,236.866 92.682 C 239.953 94.104,247.073 94.238,250.264 92.934 C 251.400 92.470,254.437 91.665,255.030 91.670 C 256.287 91.682,258.675 96.312,258.076 97.576 C 257.677 98.416,255.526 99.833,254.649 99.833 C 254.472 99.833,253.034 100.093,251.455 100.410 C 245.348 101.637,240.632 101.857,236.874 101.092 C 233.040 100.311,230.782 99.679,230.083 99.191 C 229.717 98.934,228.897 98.507,228.261 98.241 C 227.545 97.941,226.848 97.495,226.428 97.069 C 226.055 96.690,225.399 96.145,224.969 95.856 C 224.540 95.568,224.143 95.189,224.087 95.013 C 224.031 94.837,223.681 94.418,223.309 94.082 C 222.937 93.745,222.330 92.933,221.960 92.277 C 221.589 91.620,221.078 90.844,220.823 90.550 C 220.544 90.230,220.181 89.433,219.912 88.553 C 219.667 87.748,219.250 86.661,218.986 86.139 C 218.654 85.482,218.454 84.747,218.336 83.761 C 218.243 82.976,218.085 81.677,217.986 80.875 C 217.407 76.216,218.047 68.455,219.178 66.417 C 219.432 65.958,219.726 65.246,219.831 64.833 C 219.936 64.421,220.094 63.807,220.181 63.470 C 220.268 63.133,220.603 62.542,220.926 62.156 C 221.248 61.770,221.695 61.067,221.919 60.593 C 222.442 59.489,225.618 56.196,226.667 55.672 C 227.079 55.465,227.604 55.122,227.833 54.908 C 228.236 54.533,230.352 53.589,232.737 52.722 C 234.728 51.997,242.905 51.794,245.689 52.400 M294.050 52.334 C 294.770 52.437,295.924 52.764,296.634 53.067 C 297.339 53.367,298.442 53.774,299.083 53.970 C 299.725 54.166,300.447 54.459,300.688 54.622 C 302.219 55.653,303.564 56.706,303.868 57.112 C 304.062 57.371,304.550 57.928,304.953 58.349 C 305.521 58.942,305.791 59.431,306.157 60.526 C 306.416 61.302,306.805 62.270,307.022 62.677 L 307.417 63.417 307.514 81.250 C 307.596 96.428,307.576 99.141,307.376 99.472 C 306.880 100.292,306.280 100.388,301.347 100.440 L 296.777 100.487 296.222 99.898 L 295.667 99.310 295.665 82.113 L 295.663 64.917 295.274 64.083 C 293.982 61.315,293.184 60.592,290.110 59.405 C 287.189 58.277,281.589 58.808,279.056 60.452 C 278.473 60.830,278.484 60.439,278.496 80.268 L 278.507 99.302 277.945 99.898 L 277.384 100.493 272.984 100.467 C 268.353 100.439,267.617 100.327,266.972 99.550 C 266.804 99.347,266.771 95.273,266.809 79.393 C 266.844 64.684,266.805 59.172,266.659 58.270 C 266.437 56.891,266.484 56.735,267.486 55.534 C 268.332 54.520,268.628 54.367,270.471 53.998 C 271.373 53.817,272.892 53.447,273.847 53.175 C 277.644 52.093,289.046 51.619,294.050 52.334 M145.862 52.902 C 146.355 53.325,146.253 55.430,145.705 56.117 C 145.024 56.970,144.331 58.240,144.076 59.103 C 143.936 59.572,143.530 60.441,143.172 61.034 C 142.815 61.626,142.363 62.605,142.168 63.207 C 141.974 63.809,141.529 64.778,141.181 65.360 C 140.833 65.941,140.346 67.028,140.099 67.775 C 139.853 68.521,139.398 69.459,139.090 69.858 C 138.756 70.289,138.381 71.090,138.164 71.833 C 137.963 72.521,137.544 73.465,137.231 73.932 C 136.919 74.398,136.434 75.411,136.153 76.182 C 135.873 76.953,135.422 77.929,135.152 78.353 C 134.882 78.776,134.447 79.751,134.185 80.519 C 133.923 81.288,133.450 82.298,133.134 82.764 C 132.818 83.230,132.388 84.146,132.178 84.799 C 131.968 85.452,131.543 86.379,131.233 86.859 C 130.924 87.340,130.471 88.262,130.227 88.908 C 129.983 89.554,129.653 90.271,129.494 90.500 C 128.833 91.451,128.642 93.053,129.156 93.327 C 129.365 93.440,132.302 93.501,137.531 93.502 L 145.583 93.503 146.445 93.904 C 147.593 94.439,147.667 94.629,147.667 97.050 C 147.667 100.679,149.121 100.379,131.599 100.366 C 123.066 100.360,116.940 100.421,116.219 100.521 C 113.302 100.924,112.722 98.616,114.998 95.671 C 115.248 95.348,115.626 94.596,115.837 94.000 C 116.323 92.628,116.618 92.031,117.087 91.469 C 117.293 91.222,117.700 90.360,117.991 89.552 C 118.283 88.744,118.748 87.730,119.024 87.298 C 119.301 86.865,119.784 85.859,120.097 85.061 C 120.410 84.263,120.770 83.491,120.896 83.347 C 121.244 82.949,121.667 82.058,122.083 80.843 C 122.289 80.242,122.723 79.359,123.046 78.882 C 123.370 78.405,123.830 77.430,124.069 76.715 C 124.311 75.993,124.759 75.095,125.080 74.691 C 125.436 74.243,125.832 73.417,126.112 72.539 C 126.361 71.756,126.728 70.920,126.926 70.682 C 127.434 70.073,127.796 69.323,128.178 68.085 C 128.360 67.497,128.696 66.793,128.924 66.521 C 129.337 66.031,129.688 65.302,130.235 63.802 C 130.391 63.373,130.748 62.735,131.028 62.386 C 131.759 61.470,131.879 61.071,131.589 60.511 C 131.230 59.816,131.372 59.828,123.521 59.830 C 114.538 59.832,114.790 59.876,114.401 58.223 C 113.790 55.628,114.424 52.776,115.642 52.634 C 117.739 52.392,145.553 52.638,145.862 52.902 M345.428 52.857 C 346.081 53.510,345.949 55.160,345.173 56.039 C 344.666 56.613,344.368 57.177,344.083 58.101 C 343.867 58.801,343.466 59.653,343.191 59.995 C 342.908 60.346,342.470 61.292,342.183 62.172 C 341.898 63.043,341.457 63.997,341.180 64.342 C 340.907 64.681,340.458 65.619,340.182 66.427 C 339.905 67.235,339.421 68.276,339.105 68.740 C 338.789 69.204,338.310 70.221,338.041 71.000 C 337.771 71.779,337.316 72.783,337.031 73.232 C 336.745 73.680,336.320 74.622,336.086 75.326 C 335.851 76.030,335.396 77.013,335.074 77.511 C 334.752 78.009,334.369 78.829,334.223 79.333 C 333.930 80.344,333.464 81.337,332.962 82.015 C 332.783 82.258,332.423 83.105,332.164 83.897 C 331.903 84.694,331.459 85.631,331.170 85.996 C 330.883 86.359,330.458 87.218,330.227 87.906 C 329.996 88.595,329.627 89.403,329.409 89.704 C 329.190 90.004,328.901 90.400,328.767 90.583 C 328.632 90.767,328.474 91.367,328.415 91.917 C 328.226 93.680,327.496 93.545,337.061 93.511 C 347.515 93.474,347.135 93.331,346.962 97.243 L 346.876 99.202 346.283 99.795 L 345.690 100.388 330.553 100.440 C 322.228 100.469,315.209 100.505,314.955 100.520 C 313.433 100.610,312.453 99.424,313.168 98.359 C 313.431 97.968,313.801 97.183,313.990 96.615 C 314.179 96.048,314.628 95.150,314.988 94.620 C 315.348 94.091,315.842 93.057,316.087 92.323 C 316.331 91.589,316.701 90.785,316.908 90.536 C 317.410 89.932,317.585 89.581,318.103 88.138 C 318.345 87.466,318.762 86.639,319.029 86.299 C 319.297 85.960,319.738 85.024,320.010 84.220 C 320.282 83.417,320.734 82.473,321.015 82.124 C 321.295 81.774,321.741 80.850,322.005 80.070 C 322.268 79.290,322.716 78.358,323.000 78.000 C 323.284 77.642,323.738 76.691,324.010 75.887 C 324.282 75.083,324.733 74.140,325.013 73.792 C 325.294 73.443,325.707 72.616,325.931 71.954 C 326.156 71.292,326.597 70.332,326.912 69.822 C 327.226 69.311,327.753 68.224,328.082 67.405 C 328.411 66.586,328.865 65.637,329.091 65.294 C 329.317 64.952,329.731 64.095,330.011 63.390 C 330.291 62.685,330.703 61.890,330.927 61.624 C 331.409 61.051,331.434 60.805,331.042 60.466 C 330.365 59.881,329.715 59.833,322.331 59.833 C 315.234 59.833,315.034 59.824,314.610 59.491 C 313.446 58.575,313.430 54.116,314.586 52.959 L 314.962 52.583 330.058 52.583 C 343.836 52.583,345.179 52.607,345.428 52.857 M169.046 58.650 C 168.750 58.727,168.338 58.901,168.129 59.037 C 167.921 59.174,167.143 59.552,166.401 59.877 C 164.444 60.737,162.708 62.467,161.991 64.272 C 161.711 64.978,161.305 65.862,161.090 66.236 C 160.185 67.814,159.601 72.582,160.170 73.757 C 160.732 74.918,160.776 74.933,162.804 74.617 C 163.782 74.464,165.296 74.260,166.167 74.162 C 169.849 73.750,171.687 73.479,173.380 73.096 C 174.368 72.872,176.055 72.598,177.130 72.487 C 180.583 72.128,181.390 71.222,180.679 68.500 C 180.595 68.179,180.400 67.186,180.244 66.294 C 179.737 63.385,177.993 61.115,175.155 59.668 L 173.178 58.660 171.381 58.585 C 170.392 58.544,169.341 58.573,169.046 58.650 M237.667 58.652 C 234.457 59.190,230.981 62.187,229.822 65.413 C 229.657 65.873,229.332 66.704,229.101 67.259 C 228.205 69.407,227.882 73.114,228.502 74.131 C 228.976 74.909,229.008 74.912,232.372 74.441 C 234.047 74.206,236.279 73.929,237.333 73.824 C 238.387 73.720,240.271 73.419,241.519 73.155 C 242.767 72.891,244.647 72.570,245.696 72.441 C 249.962 71.915,250.117 71.360,247.975 64.256 C 247.711 63.382,247.456 62.925,246.937 62.402 C 246.559 62.020,246.025 61.431,245.750 61.094 C 244.463 59.514,240.201 58.227,237.667 58.652 M375.249 75.009 C 374.241 75.272,372.854 75.572,372.167 75.678 C 370.241 75.972,368.688 76.465,367.500 77.159 C 366.904 77.507,366.029 77.987,365.555 78.225 C 365.050 78.479,364.500 78.929,364.224 79.313 C 363.965 79.673,363.544 80.106,363.290 80.276 C 362.098 81.068,361.018 85.608,361.480 87.885 C 362.294 91.890,363.420 93.192,367.151 94.437 C 370.692 95.619,372.794 95.689,375.917 94.727 C 379.003 93.777,378.858 94.311,378.798 84.126 C 378.737 73.841,378.829 74.078,375.249 75.009 M12.307 101.652 C 12.642 101.822,13.499 102.081,14.210 102.227 C 15.458 102.484,15.801 102.625,16.946 103.349 C 17.238 103.533,18.232 103.900,19.156 104.164 C 20.080 104.428,21.246 104.878,21.746 105.165 C 22.247 105.451,23.411 105.939,24.333 106.250 C 25.256 106.561,26.403 107.040,26.884 107.315 C 27.364 107.589,28.561 108.033,29.543 108.300 C 30.526 108.567,31.611 108.979,31.956 109.217 C 32.301 109.454,33.408 109.884,34.417 110.172 C 35.425 110.460,36.700 110.943,37.250 111.247 C 37.800 111.550,38.887 111.967,39.667 112.173 C 40.446 112.378,41.496 112.794,42.000 113.096 C 42.504 113.399,43.733 113.881,44.731 114.168 C 45.730 114.455,46.930 114.903,47.398 115.162 C 47.867 115.422,48.923 115.837,49.746 116.084 C 50.569 116.331,51.740 116.785,52.350 117.092 C 52.960 117.399,54.160 117.847,55.018 118.088 C 55.875 118.329,57.028 118.776,57.580 119.080 C 58.132 119.385,59.258 119.835,60.083 120.081 C 60.908 120.327,62.035 120.778,62.587 121.084 C 63.138 121.390,64.288 121.836,65.142 122.076 C 65.996 122.317,67.085 122.733,67.562 123.002 C 68.039 123.272,69.214 123.723,70.173 124.006 C 71.132 124.289,72.179 124.691,72.500 124.899 C 73.144 125.317,73.964 125.631,75.809 126.165 C 77.170 126.559,77.683 126.967,78.172 128.043 C 78.550 128.876,78.683 143.926,78.321 144.964 C 77.876 146.242,76.670 146.279,74.847 145.072 C 74.508 144.848,73.518 144.442,72.646 144.169 C 71.774 143.897,70.729 143.447,70.322 143.170 C 69.916 142.893,68.833 142.435,67.917 142.152 C 67.000 141.868,65.800 141.390,65.250 141.088 C 64.700 140.786,63.575 140.336,62.750 140.089 C 61.925 139.841,60.800 139.392,60.250 139.091 C 59.700 138.790,58.500 138.300,57.583 138.002 C 56.667 137.703,55.542 137.251,55.083 136.997 C 54.625 136.743,53.575 136.335,52.750 136.090 C 51.925 135.845,50.813 135.379,50.280 135.055 C 49.746 134.730,48.523 134.210,47.561 133.898 C 46.599 133.586,45.536 133.142,45.198 132.912 C 44.860 132.681,44.058 132.341,43.417 132.156 C 41.684 131.657,40.817 131.321,40.167 130.899 C 39.846 130.690,38.765 130.247,37.766 129.915 C 36.766 129.582,35.678 129.125,35.349 128.900 C 35.019 128.674,33.922 128.230,32.909 127.913 C 31.897 127.596,30.810 127.145,30.493 126.911 C 30.176 126.677,29.104 126.228,28.111 125.914 C 27.118 125.599,25.918 125.122,25.445 124.854 C 24.971 124.585,23.807 124.128,22.858 123.837 C 21.910 123.547,20.672 123.058,20.108 122.752 C 19.545 122.445,18.468 122.031,17.715 121.831 C 16.962 121.631,16.006 121.251,15.589 120.987 C 15.172 120.722,14.476 120.401,14.041 120.273 C 10.626 119.268,10.895 119.406,10.130 118.282 L 9.428 117.250 9.480 109.917 C 9.536 102.024,9.531 102.070,10.446 100.923 L 10.912 100.339 11.305 100.841 C 11.521 101.117,11.972 101.482,12.307 101.652 " stroke="none" fill="#fbfbfb" fill-rule="evenodd"></path></g></svg>